<?xml version="1.0" encoding="utf-8"?>
<!-- Generator: Adobe Illustrator 21.1.0, SVG Export Plug-In . SVG Version: 6.00 Build 0)  -->
<svg version="1.1" id="Capa_1" xmlns="http://www.w3.org/2000/svg" xmlns:xlink="http://www.w3.org/1999/xlink" x="0px" y="0px"
	 viewBox="0 0 480.2 480.2" style="enable-background:new 0 0 480.2 480.2;" xml:space="preserve">
<style type="text/css">
	.st0{fill:#FFFFFF;}
</style>
<g>
	<g>
		<path class="st0" d="M88.1,32.2c-13.3,0-24,10.7-24,24s10.7,24,24,24s24-10.7,24-24S101.4,32.2,88.1,32.2z M88.1,64.2
			c-4.4,0-8-3.6-8-8s3.6-8,8-8s8,3.6,8,8S92.5,64.2,88.1,64.2z"/>
	</g>
</g>
<g>
	<g>
		<path class="st0" d="M392.1,32.2c-13.3,0-24,10.7-24,24s10.7,24,24,24s24-10.7,24-24S405.4,32.2,392.1,32.2z M392.1,64.2
			c-4.4,0-8-3.6-8-8s3.6-8,8-8s8,3.6,8,8S396.5,64.2,392.1,64.2z"/>
	</g>
</g>
<g>
	<g>
		<path class="st0" d="M479.7,213.8L439.1,86.2c5.8-8.9,8.9-19.3,9-30c0.1-30.9-24.8-56.1-55.8-56.2c-30.9-0.1-56.1,24.8-56.2,55.8
			c-0.1,23.4,14.4,44.4,36.3,52.7l14.5,79.7c-5.9-2.6-12.3-3.9-18.8-3.9c-17.1,0-33,9.2-41.5,24h-44.3c13.8-12.1,21.8-29.6,21.8-48
			v-32c0-35.3-28.7-64-64-64s-64,28.7-64,64v32c0,18.4,8,35.9,21.8,48h-44.3c-8.6-14.8-24.4-24-41.5-24c-6.5,0-12.8,1.3-18.8,3.9
			l14.5-79.7c28.9-11,43.4-43.2,32.4-72.1C129.3,7.5,97-7.1,68.2,3.9C46.4,12.1,32.1,33,32.1,56.2c0,10.7,3.2,21.1,9,30L0.5,213.8
			c-0.2,0.8-0.4,1.6-0.4,2.4v80c0,4.4,3.6,8,8,8h105.3l30.8,169.4c0.7,3.8,4,6.6,7.9,6.6h176c3.9,0,7.2-2.8,7.9-6.6l30.8-169.4
			h105.3c4.4,0,8-3.6,8-8v-80C480.1,215.4,480,214.6,479.7,213.8z M381.5,94.8c-17.3-4.8-29.4-20.5-29.4-38.5c0-22.1,17.9-40,40-40
			s40,17.9,40,40c0.2,21.8-17.3,39.8-39.1,40c-1.9,0-3.8-0.1-5.7-0.3C385.4,95.7,383.4,95.3,381.5,94.8z M192.1,160.2v-32
			c0-26.5,21.5-48,48-48s48,21.5,48,48v32c0,26.5-21.5,48-48,48C213.6,208.2,192.1,186.8,192.1,160.2z M88.1,16.2
			c22.1,0.1,39.9,18.1,39.8,40.2c-0.1,17.9-12,33.6-29.3,38.4c-21.3,5.8-43.3-6.8-49.2-28.1c-0.9-3.4-1.4-6.9-1.4-10.4
			C48.2,34.2,66,16.3,88.1,16.2z M232.1,464.2h-24c-6.6,0-12-5.4-12-12s5.4-12,12-12h24V464.2z M232.1,424.2h-36
			c-6.6,0-12-5.4-12-12s5.4-12,12-12h36V424.2z M232.1,384.2h-36c-6.6,0-12-5.4-12-12s5.4-12,12-12h36V384.2z M272.1,464.2h-24v-24
			h24c6.6,0,12,5.4,12,12C284.1,458.9,278.8,464.2,272.1,464.2z M284.1,424.2h-36v-24h36c6.6,0,12,5.4,12,12
			C296.1,418.9,290.8,424.2,284.1,424.2z M248.1,384.2v-24h36c6.6,0,12,5.4,12,12s-5.4,12-12,12H248.1z M464.1,288.2L464.1,288.2
			h-104c-3.9,0-7.2,2.8-7.9,6.6l-30.8,169.4h-24.1c4.2-8.5,3.7-18.6-1.4-26.7c14-6.4,20.1-22.9,13.7-36.9c-1.4-3.1-3.5-6-5.9-8.4
			c8.9-8.5,11-21.8,5.3-32.7c11.4-2,21.2-9.4,26.4-19.7l-14.3-7.2c-3.5,7.1-10.8,11.6-18.8,11.6h-54.1v-73.4l73.6-14.7l-3.2-15.7
			L240,256.1l-86.5-15.7l-2.9,15.7l81.4,14.8v73.3H178c-7.9,0-15.2-4.5-18.7-11.6l-14.3,7.2c5.2,10.4,14.9,17.7,26.3,19.7
			c-5.7,10.8-3.6,24.2,5.3,32.7c-11,10.7-11.3,28.4-0.6,39.4c2.4,2.5,5.3,4.5,8.4,5.9c-5.1,8-5.7,18.1-1.4,26.7h-24.1L128,294.8
			c-0.7-3.8-4-6.6-7.9-6.6h-104v-70.8l37.3-117.3c1.3,1.1,2.7,2.1,4.2,3l0.3,0.2c1.6,1,3.2,2,4.9,2.8c0.4,0.2,0.8,0.4,1.2,0.6
			c1.5,0.7,3,1.4,4.6,2c0.3,0.1,0.6,0.2,1,0.4c3.9,1.4,7.9,2.3,12,2.8h0.3c1.8,0.2,3.7,0.3,5.5,0.3c0.3,0,0.5,0,0.8,0
			c0.3,0,0.6-0.1,0.8-0.1c0.7,0,1.3,0,2,0l-16.9,92.7c-0.8,4.3,2.1,8.5,6.5,9.3c2.8,0.5,5.6-0.5,7.5-2.6c11.3-13.4,31.4-15,44.8-3.7
			c3.7,3.2,6.7,7.2,8.6,11.7c1.3,2.9,4.1,4.8,7.3,4.8h182.8c3.2,0,6.1-1.9,7.3-4.8c6.9-16.1,25.6-23.6,41.7-16.6
			c4.5,1.9,8.5,4.9,11.7,8.6c2.9,3.3,7.9,3.7,11.3,0.8c2.1-1.8,3.1-4.7,2.6-7.5l-16.8-92.7c0.7,0,1.4,0,2,0c0.2,0,0.5,0.1,0.8,0.1
			s0.4,0,0.7,0c6.2,0,12.4-1.1,18.2-3.2l0.4-0.2c1.7-0.6,3.4-1.4,5.1-2.2l0.9-0.4c1.8-0.9,3.5-1.9,5.1-3l0.1-0.1
			c1.4-0.9,2.8-1.9,4.2-3l37.3,117.3L464.1,288.2L464.1,288.2z"/>
	</g>
</g>
<g>
	<g>
		<path class="st0" d="M106,248.2L106,248.2c-7.9,0-15.2-4.5-18.7-11.6L73,243.8c6.2,12.5,19,20.5,33,20.4h22.1v-16H106z"/>
	</g>
</g>
<g>
	<g>
		<path class="st0" d="M393,236.7c-3.5,7.1-10.8,11.6-18.8,11.6h-22.1v16h22.1c14,0.1,26.9-7.9,33.1-20.4L393,236.7z"/>
	</g>
</g>
</svg>
