<?xml version="1.0" encoding="utf-8"?>
<!-- Generator: Adobe Illustrator 21.1.0, SVG Export Plug-In . SVG Version: 6.00 Build 0)  -->
<svg version="1.1" id="Layer_1" xmlns="http://www.w3.org/2000/svg" xmlns:xlink="http://www.w3.org/1999/xlink" x="0px" y="0px"
	 viewBox="0 0 512 512" style="enable-background:new 0 0 512 512;" xml:space="preserve">
<style type="text/css">
	.st0{fill:#FFFFFF;}
</style>
<g transform="translate(0 1)">
	<g>
		<g>
			<path class="st0" d="M512,411.3c0-33.3-26.5-59.7-59.7-59.7H137.8l22.5-170.7h5.3c16.2,0,32.4-6.8,45.2-18.8
				c5.1-5.1,11.1-8.5,17.9-11.1c7.7-2.6,15.4-4.3,23.9-4.3H279c11.1,0,19.6-8.5,19.6-19.6v-11.9c0-11.1-8.5-19.6-19.6-19.6H177.5
				c-6,0-11.1-4.3-13.7-9.4l-31.6-70c-1.7-5.1-6-8.5-11.1-10.2s-10.2-1.7-15.4,0.9l-14.5,7.7c-9.4,5.1-13.7,16.2-9.4,25.6l28.2,64.9
				l-16.2,64.9L43.7,353.7C18.4,360.6,0,383.6,0,411.3c0,30.4,22,55.1,51.2,59.1v9.1c0,14.5,11.1,25.6,25.6,25.6h93.9
				c13.7,0,25.6-11.1,25.6-25.6v-8.5h179.2v8.5c0,14.5,11.9,25.6,25.6,25.6h34.1c14.5,0,25.6-11.1,25.6-25.6v-9.2
				C489.3,466.3,512,441.6,512,411.3z M393.9,398.4c-0.1,0.2-0.1,0.5-0.2,0.7c-0.1,0.4-0.2,0.9-0.2,1.3c-0.1,0.6-0.2,1.1-0.3,1.7
				c0,0.2,0,0.4-0.1,0.6c-0.1,0.8-0.2,1.6-0.3,2.4c0,0.1,0,0.3,0,0.4c-0.1,0.9-0.2,1.8-0.2,2.6c-0.1,1-0.1,2.1-0.1,3.1
				s0,2.1,0.1,3.1c0,0.9,0.1,1.8,0.2,2.6c0,0.1,0,0.3,0,0.4c0.1,0.8,0.2,1.6,0.3,2.4c0,0.2,0,0.4,0.1,0.6c0.1,0.6,0.2,1.1,0.3,1.7
				c0.1,0.4,0.1,0.9,0.2,1.3c0,0.2,0.1,0.5,0.2,0.7c2.5,11.6,8.3,21.8,16.3,29.7H384H187.7h-86c8.1-7.9,13.8-18.2,16.3-29.7
				c0.1-0.2,0.1-0.5,0.2-0.7c0.1-0.4,0.2-0.9,0.2-1.3c0.1-0.6,0.2-1.1,0.3-1.7c0-0.2,0-0.4,0.1-0.6c0.1-0.8,0.2-1.6,0.3-2.4
				c0-0.1,0-0.3,0-0.4c0.1-0.9,0.2-1.8,0.2-2.6c0.1-1,0.1-2.1,0.1-3.1s0-2.1-0.1-3.1c0-0.9-0.1-1.8-0.2-2.6c0-0.1,0-0.3,0-0.4
				c-0.1-0.8-0.2-1.6-0.3-2.4c0-0.2,0-0.4-0.1-0.6c-0.1-0.6-0.2-1.1-0.3-1.7c-0.1-0.4-0.2-0.9-0.2-1.3c0-0.2-0.1-0.5-0.2-0.7
				c-2.5-11.6-8.3-21.8-16.3-29.7H128h282.3C402.2,376.6,396.4,386.8,393.9,398.4z M120.3,351.6h-58l4.7-17.1c0.4,0,0.8,0.1,1.3,0.1
				h25.6c4.3,0,8.5-3.4,8.5-8.5s-3.4-8.5-8.5-8.5H71.7l4.7-17.1c0.1,0,0.3,0,0.4,0h25.6c4.3,0,8.5-3.4,8.5-8.5s-3.4-8.5-8.5-8.5
				H81.1l28.2-102.4h34.1L120.3,351.6z M97.3,33.3c-0.9-1.7,0-2.6,0.9-3.4l14.5-7.7c0.9,0,0.9,0,1.7,0s1.7,0,1.7,0.9l31.6,70
				c6,11.1,17.1,18.8,29.9,18.8h102.4c1.7,0,2.6,0.9,2.6,2.6v11.9c0,1.7-0.9,2.6-2.6,2.6h-26.5c-10.2,0-20.5,1.7-29.9,5.1
				c-9.4,3.4-17.9,8.5-24.7,15.4c-9.4,9.4-20.5,14.5-32.4,14.5h-13.7h-39.3l14.5-57.2c0-2.6,0-5.1-1.7-6.8L97.3,33.3z M17.1,411.3
				c0-23.9,18.8-42.7,42.7-42.7c23,0,42.7,18.8,42.7,42.7c0,23.9-18.8,42.7-42.7,42.7S17.1,435.2,17.1,411.3z M179.2,479.6
				c0,5.1-3.4,8.5-8.5,8.5H76.8c-5.1,0-8.5-3.4-8.5-8.5v-8.5h110.9V479.6z M443.7,479.6c0,5.1-4.3,8.5-8.5,8.5h-34.1
				c-5.1,0-8.5-4.3-8.5-8.5v-8.5h51.2L443.7,479.6L443.7,479.6z M452.3,454c-23.9,0-42.7-18.8-42.7-42.7c0-23.9,18.8-42.7,42.7-42.7
				c23,0,42.7,18.8,42.7,42.7C494.9,435.2,476.2,454,452.3,454z"/>
			<path class="st0" d="M247.5,419.9h17.1c4.3,0,8.5-3.4,8.5-8.5s-3.4-8.5-8.5-8.5h-17.1c-5.1,0-8.5,3.4-8.5,8.5
				C238.9,416.4,242.3,419.9,247.5,419.9z"/>
			<path class="st0" d="M298.7,419.9h17.1c4.3,0,8.5-3.4,8.5-8.5s-3.4-8.5-8.5-8.5h-17.1c-5.1,0-8.5,3.4-8.5,8.5
				C290.1,416.4,293.5,419.9,298.7,419.9z"/>
			<path class="st0" d="M349.9,419.9h17.1c4.3,0,8.5-3.4,8.5-8.5s-3.4-8.5-8.5-8.5h-17.1c-5.1,0-8.5,3.4-8.5,8.5
				C341.3,416.4,344.7,419.9,349.9,419.9z"/>
			<path class="st0" d="M196.3,419.9h17.1c4.3,0,8.5-3.4,8.5-8.5s-3.4-8.5-8.5-8.5h-17.1c-5.1,0-8.5,3.4-8.5,8.5
				C187.7,416.4,191.1,419.9,196.3,419.9z"/>
			<path class="st0" d="M145.1,419.9h17.1c4.3,0,8.5-3.4,8.5-8.5s-3.4-8.5-8.5-8.5h-17.1c-5.1,0-8.5,3.4-8.5,8.5
				C136.5,416.4,139.9,419.9,145.1,419.9z"/>
		</g>
	</g>
</g>
</svg>
