<svg id="Capa_1" xmlns="http://www.w3.org/2000/svg" viewBox="0 0 480.2 480.2">
    <style>
        .st0{fill:#fff}
    </style>
    <path class="st0" d="M88.1 32.2c-13.3 0-24 10.7-24 24s10.7 24 24 24 24-10.7 24-24-10.7-24-24-24zm0 32c-4.4 0-8-3.6-8-8s3.6-8 8-8 8 3.6 8 8-3.6 8-8 8z"/>
    <path class="st0" d="M392.1 32.2c-13.3 0-24 10.7-24 24s10.7 24 24 24 24-10.7 24-24-10.7-24-24-24zm0 32c-4.4 0-8-3.6-8-8s3.6-8 8-8 8 3.6 8 8-3.6 8-8 8z"/>
    <path class="st0" d="M479.7 213.8L439.1 86.2c5.8-8.9 8.9-19.3 9-30C448.2 25.3 423.3.1 392.3 0c-30.9-.1-56.1 24.8-56.2 55.8-.1 23.4 14.4 44.4 36.3 52.7l14.5 79.7c-5.9-2.6-12.3-3.9-18.8-3.9-17.1 0-33 9.2-41.5 24h-44.3c13.8-12.1 21.8-29.6 21.8-48v-32c0-35.3-28.7-64-64-64s-64 28.7-64 64v32c0 18.4 8 35.9 21.8 48h-44.3c-8.6-14.8-24.4-24-41.5-24-6.5 0-12.8 1.3-18.8 3.9l14.5-79.7c28.9-11 43.4-43.2 32.4-72.1C129.3 7.5 97-7.1 68.2 3.9 46.4 12.1 32.1 33 32.1 56.2c0 10.7 3.2 21.1 9 30L.5 213.8c-.2.8-.4 1.6-.4 2.4v80c0 4.4 3.6 8 8 8h105.3l30.8 169.4c.7 3.8 4 6.6 7.9 6.6h176c3.9 0 7.2-2.8 7.9-6.6l30.8-169.4h105.3c4.4 0 8-3.6 8-8v-80c0-.8-.1-1.6-.4-2.4zm-98.2-119c-17.3-4.8-29.4-20.5-29.4-38.5 0-22.1 17.9-40 40-40s40 17.9 40 40c.2 21.8-17.3 39.8-39.1 40-1.9 0-3.8-.1-5.7-.3-1.9-.3-3.9-.7-5.8-1.2zm-189.4 65.4v-32c0-26.5 21.5-48 48-48s48 21.5 48 48v32c0 26.5-21.5 48-48 48s-48-21.4-48-48zm-104-144c22.1.1 39.9 18.1 39.8 40.2-.1 17.9-12 33.6-29.3 38.4-21.3 5.8-43.3-6.8-49.2-28.1-.9-3.4-1.4-6.9-1.4-10.4.2-22.1 18-40 40.1-40.1zm144 448h-24c-6.6 0-12-5.4-12-12s5.4-12 12-12h24v24zm0-40h-36c-6.6 0-12-5.4-12-12s5.4-12 12-12h36v24zm0-40h-36c-6.6 0-12-5.4-12-12s5.4-12 12-12h36v24zm40 80h-24v-24h24c6.6 0 12 5.4 12 12 0 6.7-5.3 12-12 12zm12-40h-36v-24h36c6.6 0 12 5.4 12 12 0 6.7-5.3 12-12 12zm-36-40v-24h36c6.6 0 12 5.4 12 12s-5.4 12-12 12h-36zm216-96h-104c-3.9 0-7.2 2.8-7.9 6.6l-30.8 169.4h-24.1c4.2-8.5 3.7-18.6-1.4-26.7 14-6.4 20.1-22.9 13.7-36.9-1.4-3.1-3.5-6-5.9-8.4 8.9-8.5 11-21.8 5.3-32.7 11.4-2 21.2-9.4 26.4-19.7l-14.3-7.2c-3.5 7.1-10.8 11.6-18.8 11.6h-54.1v-73.4l73.6-14.7-3.2-15.7-78.6 15.7-86.5-15.7-2.9 15.7 81.4 14.8v73.3h-54c-7.9 0-15.2-4.5-18.7-11.6l-14.3 7.2c5.2 10.4 14.9 17.7 26.3 19.7-5.7 10.8-3.6 24.2 5.3 32.7-11 10.7-11.3 28.4-.6 39.4 2.4 2.5 5.3 4.5 8.4 5.9-5.1 8-5.7 18.1-1.4 26.7h-24.1L128 294.8c-.7-3.8-4-6.6-7.9-6.6h-104v-70.8l37.3-117.3c1.3 1.1 2.7 2.1 4.2 3l.3.2c1.6 1 3.2 2 4.9 2.8l1.2.6c1.5.7 3 1.4 4.6 2 .3.1.6.2 1 .4 3.9 1.4 7.9 2.3 12 2.8h.3c1.8.2 3.7.3 5.5.3h.8c.3 0 .6-.1.8-.1h2l-16.9 92.7c-.8 4.3 2.1 8.5 6.5 9.3 2.8.5 5.6-.5 7.5-2.6 11.3-13.4 31.4-15 44.8-3.7 3.7 3.2 6.7 7.2 8.6 11.7 1.3 2.9 4.1 4.8 7.3 4.8h182.8c3.2 0 6.1-1.9 7.3-4.8 6.9-16.1 25.6-23.6 41.7-16.6 4.5 1.9 8.5 4.9 11.7 8.6 2.9 3.3 7.9 3.7 11.3.8 2.1-1.8 3.1-4.7 2.6-7.5l-16.8-92.7h2c.2 0 .5.1.8.1h.7c6.2 0 12.4-1.1 18.2-3.2l.4-.2c1.7-.6 3.4-1.4 5.1-2.2l.9-.4c1.8-.9 3.5-1.9 5.1-3l.1-.1c1.4-.9 2.8-1.9 4.2-3l37.3 117.3-.1 70.8z"/>
    <path class="st0" d="M106 248.2c-7.9 0-15.2-4.5-18.7-11.6L73 243.8c6.2 12.5 19 20.5 33 20.4h22.1v-16H106z"/>
    <path class="st0" d="M393 236.7c-3.5 7.1-10.8 11.6-18.8 11.6h-22.1v16h22.1c14 .1 26.9-7.9 33.1-20.4l-14.3-7.2z"/>
</svg>
