<svg xmlns="http://www.w3.org/2000/svg" viewBox="0 0 512.001 512.001" width="512" height="512">
    <path d="M186.771 422.819l-23.777-5.563a15.981 15.981 0 0 1-12.39-15.624v-7.382c17.974-11.616 29.906-31.816 29.906-54.763v-47.004-.097c0-.054-.007-.091-.008-.143a7.523 7.523 0 0 0-1.231-4.006 7.563 7.563 0 0 0-10.471-2.173c-6.332 4.156-21.555 6.707-29.682 6.707-19.983 0-39.241-7.138-55.61-20.173l-18.565-20.013c3.485-5.059 7.378-9.44 11.625-13.055 18.82-16.014 40.974-15.244 41.161-15.235 13.973.722 27.247 7.075 39.457 18.885 10.918 10.561 19.081 25.645 24.26 44.832 1.088 4.032 5.237 6.414 9.271 5.331a7.563 7.563 0 0 0 5.33-9.271c-5.901-21.861-15.438-39.276-28.347-51.764-18.575-17.966-37.002-22.487-49.19-23.117-.85-.043-16.13-.692-33.611 7.299a59.278 59.278 0 0 0-25.714-5.868C26.55 210.624 0 237.174 0 269.808c0 15.513 5.96 30.177 16.782 41.288 9.071 9.314 20.726 15.266 33.38 17.196v11.196c0 23.871 12.909 44.775 32.105 56.128v6.016a15.982 15.982 0 0 1-12.39 15.624L46.1 422.819c-23.028 5.389-39.111 25.67-39.111 49.32v30.536a7.562 7.562 0 0 0 7.562 7.562h203.771a7.562 7.562 0 0 0 7.562-7.562v-30.536c-.002-23.65-16.085-43.931-39.113-49.32zM50.165 312.945c-20.171-4.124-35.041-21.776-35.041-43.137 0-24.295 19.765-44.06 44.06-44.06 3.091 0 6.159.341 9.158.976-.526.424-1.052.846-1.574 1.29-6.748 5.742-12.717 12.945-17.748 21.406-.004.006-.009.011-.012.017l-.04.067-.052.084-.01.02a75.185 75.185 0 0 0-9.778 24.449 75.297 75.297 0 0 0-1.118 23.535 7.562 7.562 0 0 0 9.329 6.517 79.4 79.4 0 0 0 2.826-.759v9.595zm5.648-27.866a7.546 7.546 0 0 0-2.351 1.063c-.239.103-.473.217-.714.317a60.201 60.201 0 0 1 1.185-9.329 60.19 60.19 0 0 1 2.841-9.557 126.048 126.048 0 0 0 10.072 10.609c-4.061 3.117-7.402 5.022-8.633 5.683-.788.424-1.591.824-2.4 1.214zm9.472 54.409v-42.255l.087-.045c2.287-1.229 7.492-4.257 13.413-9.185 17.979 12.887 38.751 19.894 60.332 19.894 5.418 0 16.47-1.078 26.269-4.045v35.637c0 27.597-22.452 50.049-50.05 50.049s-50.051-22.453-50.051-50.05zM210.76 495.113H22.112v-22.974c0-16.589 11.281-30.814 27.434-34.594l2.128-.498c7.458 12.126 18.315 22.097 31.074 28.425 1.08.536 2.225.79 3.354.79a7.563 7.563 0 0 0 3.366-14.338c-8.702-4.316-16.299-10.748-22.054-18.56l5.91-1.383c14.01-3.278 23.836-15.516 24.057-29.856a64.948 64.948 0 0 0 38.1-.666v.173c0 14.552 9.897 27.033 24.068 30.349l5.928 1.387c-11.354 15.527-29.386 24.85-49.041 24.85a7.562 7.562 0 1 0 0 15.124c26.696 0 50.994-13.767 64.765-36.294l2.125.497c16.153 3.78 27.434 18.005 27.434 34.594v22.974z" fill="#FFF"/>
    <circle cx="92.49" cy="314.87" r="6.386" fill="#FFF"/>
    <circle cx="135.91" cy="314.87" r="6.386" fill="#FFF"/>
    <g fill="#FFF">
        <path d="M121.82 355.312c-3.732 3.732-9.805 3.732-13.537 0a7.5 7.5 0 0 0-10.606.001 7.5 7.5 0 0 0 .001 10.606c4.79 4.789 11.082 7.184 17.374 7.184s12.584-2.395 17.373-7.184a7.5 7.5 0 0 0 .001-10.606 7.5 7.5 0 0 0-10.606-.001z"/>
        <path d="M382.413 373.104c6.291 0 12.584-2.396 17.374-7.185a7.5 7.5 0 0 0-10.605-10.607c-3.733 3.732-9.804 3.73-13.536 0a7.5 7.5 0 0 0-10.607 10.607c4.791 4.79 11.082 7.185 17.374 7.185z"/>
        <path d="M484.659 429.381a7.563 7.563 0 0 0-7.238 13.28c12.182 6.64 19.456 17.66 19.456 29.478v22.974h-30.976v-8.956a7.562 7.562 0 1 0-15.124 0v8.956H314.643v-8.956a7.562 7.562 0 1 0-15.124 0v8.956h-31.024v-22.974c0-16.455 13.838-30.656 33.652-34.536l28.414-5.563a39.539 39.539 0 0 0 9.56-3.162 71.232 71.232 0 0 0 42.565 14.121 71.23 71.23 0 0 0 42.565-14.121 39.496 39.496 0 0 0 9.56 3.162l19.28 3.775a7.565 7.565 0 0 0 8.874-5.967 7.562 7.562 0 0 0-5.968-8.874l-19.28-3.775c-9.082-1.778-15.675-8.325-15.675-15.566v-11.105c15.043-11.949 24.717-30.38 24.717-51.04v-47.002V292.388c0-.053-.007-.089-.008-.139a7.511 7.511 0 0 0-1.232-4.01 7.564 7.564 0 0 0-10.471-2.173c-6.332 4.156-21.555 6.707-29.681 6.707-19.983 0-39.24-7.138-55.61-20.172l-18.565-20.014c3.485-5.058 7.378-9.44 11.626-13.055 18.82-16.014 40.972-15.244 41.16-15.235 13.973.722 27.248 7.075 39.458 18.885 10.918 10.561 19.08 25.645 24.26 44.833 1.088 4.032 5.238 6.413 9.271 5.33a7.563 7.563 0 0 0 5.33-9.272c-5.902-21.86-15.439-39.276-28.347-51.762-18.575-17.966-37.002-22.487-49.191-23.118-1.138-.058-28.2-1.212-51.741 18.821-6.75 5.743-12.72 12.948-17.751 21.41-.003.004-.007.008-.009.013l-.031.051c-.02.034-.042.067-.063.101l-.012.024a75.272 75.272 0 0 0-10.894 47.979 7.562 7.562 0 0 0 9.329 6.517 79.4 79.4 0 0 0 2.826-.759v36.137c0 21.65 10.621 40.857 26.917 52.716v9.429c0 7.241-6.592 13.787-15.674 15.566l-28.414 5.563c-27.007 5.288-45.869 25.594-45.869 49.378v30.536a7.562 7.562 0 0 0 7.562 7.562h243.504a7.562 7.562 0 0 0 7.562-7.562v-30.536c-.001-17.442-10.222-33.427-27.342-42.758zm-101.973-1.506a56.118 56.118 0 0 1-30.245-8.852c3.827-4.988 6.013-10.981 6.013-17.391v-1.228a64.81 64.81 0 0 0 23.133 4.257c8.98 0 17.541-1.826 25.332-5.125v2.096c0 6.41 2.185 12.403 6.013 17.391a56.127 56.127 0 0 1-30.246 8.852zm-60.622-142.796a7.54 7.54 0 0 0-2.35 1.063c-.24.103-.473.217-.714.317a60.186 60.186 0 0 1 1.185-9.329 60.055 60.055 0 0 1 2.841-9.557 126.201 126.201 0 0 0 10.072 10.609c-4.063 3.117-7.404 5.022-8.634 5.683-.788.424-1.591.825-2.4 1.214zm9.472 54.409v-42.256l.086-.044c2.286-1.228 7.491-4.255 13.415-9.185 17.979 12.887 38.751 19.893 60.332 19.893 5.418 0 16.47-1.078 26.268-4.045v35.637c0 27.597-22.452 50.049-50.05 50.049s-50.051-22.452-50.051-50.049z"/>
    </g>
    <circle cx="358.74" cy="314.87" r="6.386" fill="#FFF"/>
    <circle cx="402.16" cy="314.87" r="6.386" fill="#FFF"/>
    <path d="M351.648 163.84c19.96-17.792 31.208-43.014 31.018-69.924-.361-50.947-41.939-92.152-92.824-92.152-.212 0-.429 0-.641.002-24.985.17-48.358 10.12-65.812 28.016-8.543 8.759-15.14 18.896-19.602 29.895h-40.513a7.562 7.562 0 0 0 0 15.124h35.853a93.345 93.345 0 0 0-1.984 15.072H160.38a7.562 7.562 0 0 0 0 15.124h37.227a91.974 91.974 0 0 0 3.004 15.071h-37.337a7.562 7.562 0 0 0 0 15.124h43.144a93.454 93.454 0 0 0 17.611 24.709 95.047 95.047 0 0 0 5.893 5.435 77.008 77.008 0 0 1-29.959 6.926 78.16 78.16 0 0 1-19.684-1.982 7.568 7.568 0 0 0-6.99 1.954c-10.56 10.306-23.548 14.202-27.817 15.483-1.038.312-2.085.6-3.141.864 4.4-7.385 7.609-16.121 9.572-26.087a7.561 7.561 0 0 0-2.677-7.353c-18.609-14.981-29.184-37.257-29.015-61.117.301-42.646 35.106-77.136 77.702-77.136a78.311 78.311 0 0 1 14.1 1.276 7.555 7.555 0 0 0 8.801-6.074 7.56 7.56 0 0 0-6.074-8.801 93.521 93.521 0 0 0-16.188-1.522l-.641-.002c-50.881 0-92.463 41.208-92.823 92.152-.19 26.909 11.058 52.131 31.019 69.923-1.796 7.101-5.015 15.729-10.747 22.674-3.021 3.661-3.503 8.703-1.229 12.847a11.365 11.365 0 0 0 10 5.924c.476 0 .957-.03 1.439-.089a86.778 86.778 0 0 0 14.25-2.995c4.76-1.428 18.51-5.553 31.005-16.363a93.863 93.863 0 0 0 19.529 1.54c15.305-.395 30.246-4.615 43.516-12.229a91.912 91.912 0 0 0 43.532 12.229 93.634 93.634 0 0 0 19.528-1.54c12.495 10.809 26.245 14.935 31.004 16.363a86.822 86.822 0 0 0 14.25 2.995c.482.06.962.089 1.439.089 4.147 0 7.969-2.223 10-5.923 2.274-4.143 1.792-9.186-1.228-12.848-5.733-6.947-8.951-15.574-10.747-22.674zm-9.367 23.877c-4.268-1.28-17.256-5.177-27.816-15.483a7.562 7.562 0 0 0-6.989-1.955 78.18 78.18 0 0 1-19.683 1.982c-14.036-.362-27.497-4.516-39.197-11.913a7.515 7.515 0 0 0-1.163-.756 78.84 78.84 0 0 1-12.668-10.344c-7.069-7.124-12.604-15.38-16.431-24.336a6.968 6.968 0 0 0-.17-.407 76.935 76.935 0 0 1-6.006-28.467c-.381-20.942 7.452-40.722 22.058-55.697 14.611-14.981 34.175-23.31 55.088-23.452l.537-.002c42.592 0 77.4 34.493 77.702 77.136.169 23.86-10.406 46.137-29.015 61.118a7.56 7.56 0 0 0-2.677 7.352c1.963 9.965 5.172 18.703 9.572 26.088a69.338 69.338 0 0 1-3.142-.864z" fill="#FFF"/>
    <path d="M334.288 58.363h-85.576a7.562 7.562 0 0 0 0 15.124h85.576a7.562 7.562 0 0 0 0-15.124z" fill="#FFF"/>
    <path d="M334.288 88.559h-85.576a7.562 7.562 0 0 0 0 15.124h85.576a7.562 7.562 0 0 0 0-15.124z" fill="#FFF"/>
    <path d="M292.887 118.754h-44.175a7.562 7.562 0 0 0 0 15.124h44.175a7.562 7.562 0 0 0 0-15.124z" fill="#FFF"/>
</svg>
