<svg id="Layer_1" xmlns="http://www.w3.org/2000/svg" viewBox="0 0 512 512">
    <style>
        .st0{fill:#fff}
    </style>
    <path class="st0" d="M512 411.3c0-33.3-26.5-59.7-59.7-59.7H137.8l22.5-170.7h5.3c16.2 0 32.4-6.8 45.2-18.8 5.1-5.1 11.1-8.5 17.9-11.1 7.7-2.6 15.4-4.3 23.9-4.3H279c11.1 0 19.6-8.5 19.6-19.6v-11.9c0-11.1-8.5-19.6-19.6-19.6H177.5c-6 0-11.1-4.3-13.7-9.4l-31.6-70c-1.7-5.1-6-8.5-11.1-10.2s-10.2-1.7-15.4.9l-14.5 7.7c-9.4 5.1-13.7 16.2-9.4 25.6l28.2 64.9L93.8 170 43.7 353.7C18.4 360.6 0 383.6 0 411.3c0 30.4 22 55.1 51.2 59.1v9.1c0 14.5 11.1 25.6 25.6 25.6h93.9c13.7 0 25.6-11.1 25.6-25.6V471h179.2v8.5c0 14.5 11.9 25.6 25.6 25.6h34.1c14.5 0 25.6-11.1 25.6-25.6v-9.2c28.5-4 51.2-28.7 51.2-59zm-118.1-12.9c-.1.2-.1.5-.2.7-.1.4-.2.9-.2 1.3-.1.6-.2 1.1-.3 1.7 0 .2 0 .4-.1.6l-.3 2.4v.4c-.1.9-.2 1.8-.2 2.6-.1 1-.1 2.1-.1 3.1s0 2.1.1 3.1c0 .9.1 1.8.2 2.6v.4l.3 2.4c0 .2 0 .4.1.6.1.6.2 1.1.3 1.7.1.4.1.9.2 1.3 0 .2.1.5.2.7 2.5 11.6 8.3 21.8 16.3 29.7H101.7c8.1-7.9 13.8-18.2 16.3-29.7.1-.2.1-.5.2-.7.1-.4.2-.9.2-1.3.1-.6.2-1.1.3-1.7 0-.2 0-.4.1-.6l.3-2.4v-.4c.1-.9.2-1.8.2-2.6.1-1 .1-2.1.1-3.1s0-2.1-.1-3.1c0-.9-.1-1.8-.2-2.6v-.4l-.3-2.4c0-.2 0-.4-.1-.6-.1-.6-.2-1.1-.3-1.7-.1-.4-.2-.9-.2-1.3 0-.2-.1-.5-.2-.7-2.5-11.6-8.3-21.8-16.3-29.7h308.6c-8.1 7.9-13.9 18.1-16.4 29.7zm-273.6-46.8h-58l4.7-17.1c.4 0 .8.1 1.3.1h25.6c4.3 0 8.5-3.4 8.5-8.5s-3.4-8.5-8.5-8.5H71.7l4.7-17.1h26c4.3 0 8.5-3.4 8.5-8.5s-3.4-8.5-8.5-8.5H81.1l28.2-102.4h34.1l-23.1 170.5zm-23-318.3c-.9-1.7 0-2.6.9-3.4l14.5-7.7h1.7c.8 0 1.7 0 1.7.9l31.6 70c6 11.1 17.1 18.8 29.9 18.8H280c1.7 0 2.6.9 2.6 2.6v11.9c0 1.7-.9 2.6-2.6 2.6h-26.5c-10.2 0-20.5 1.7-29.9 5.1-9.4 3.4-17.9 8.5-24.7 15.4-9.4 9.4-20.5 14.5-32.4 14.5h-53l14.5-57.2c0-2.6 0-5.1-1.7-6.8l-29-66.7zm-80.2 378c0-23.9 18.8-42.7 42.7-42.7 23 0 42.7 18.8 42.7 42.7 0 23.9-18.8 42.7-42.7 42.7s-42.7-18.8-42.7-42.7zm162.1 68.3c0 5.1-3.4 8.5-8.5 8.5H76.8c-5.1 0-8.5-3.4-8.5-8.5v-8.5h110.9v8.5zm264.5 0c0 5.1-4.3 8.5-8.5 8.5h-34.1c-5.1 0-8.5-4.3-8.5-8.5v-8.5h51.2l-.1 8.5zm8.6-25.6c-23.9 0-42.7-18.8-42.7-42.7 0-23.9 18.8-42.7 42.7-42.7 23 0 42.7 18.8 42.7 42.7-.1 23.9-18.8 42.7-42.7 42.7z" transform="translate(0 1)"/>
    <path class="st0" d="M247.5 419.9h17.1c4.3 0 8.5-3.4 8.5-8.5s-3.4-8.5-8.5-8.5h-17.1c-5.1 0-8.5 3.4-8.5 8.5-.1 5 3.3 8.5 8.5 8.5z" transform="translate(0 1)"/>
    <path class="st0" d="M298.7 419.9h17.1c4.3 0 8.5-3.4 8.5-8.5s-3.4-8.5-8.5-8.5h-17.1c-5.1 0-8.5 3.4-8.5 8.5-.1 5 3.3 8.5 8.5 8.5z" transform="translate(0 1)"/>
    <path class="st0" d="M349.9 419.9H367c4.3 0 8.5-3.4 8.5-8.5s-3.4-8.5-8.5-8.5h-17.1c-5.1 0-8.5 3.4-8.5 8.5-.1 5 3.3 8.5 8.5 8.5z" transform="translate(0 1)"/>
    <path class="st0" d="M196.3 419.9h17.1c4.3 0 8.5-3.4 8.5-8.5s-3.4-8.5-8.5-8.5h-17.1c-5.1 0-8.5 3.4-8.5 8.5-.1 5 3.3 8.5 8.5 8.5z" transform="translate(0 1)"/>
    <path class="st0" d="M145.1 419.9h17.1c4.3 0 8.5-3.4 8.5-8.5s-3.4-8.5-8.5-8.5h-17.1c-5.1 0-8.5 3.4-8.5 8.5-.1 5 3.3 8.5 8.5 8.5z" transform="translate(0 1)"/>
</svg>
